<mxfile host="app.diagrams.net" agent="Mozilla/5.0 (Windows NT 10.0; Win64; x64) AppleWebKit/537.36 (KHTML, like Gecko) Chrome/131.0.0.0 Safari/537.36" version="25.0.3">
  <diagram id="C5RBs43oDa-KdzZeNtuy" name="Page-1">
    <mxGraphModel dx="642" dy="410" grid="1" gridSize="10" guides="1" tooltips="1" connect="1" arrows="1" fold="1" page="1" pageScale="1" pageWidth="827" pageHeight="1169" math="0" shadow="0">
      <root>
        <mxCell id="WIyWlLk6GJQsqaUBKTNV-0" />
        <mxCell id="WIyWlLk6GJQsqaUBKTNV-1" parent="WIyWlLk6GJQsqaUBKTNV-0" />
        <mxCell id="7I79Z4eoALwgWrJ79Ugs-4" value="" style="edgeStyle=orthogonalEdgeStyle;rounded=0;orthogonalLoop=1;jettySize=auto;html=1;" edge="1" parent="WIyWlLk6GJQsqaUBKTNV-1" source="7I79Z4eoALwgWrJ79Ugs-0" target="7I79Z4eoALwgWrJ79Ugs-3">
          <mxGeometry relative="1" as="geometry" />
        </mxCell>
        <mxCell id="7I79Z4eoALwgWrJ79Ugs-0" value="INICIO" style="ellipse;whiteSpace=wrap;html=1;aspect=fixed;" vertex="1" parent="WIyWlLk6GJQsqaUBKTNV-1">
          <mxGeometry x="280" y="20" width="80" height="80" as="geometry" />
        </mxCell>
        <mxCell id="7I79Z4eoALwgWrJ79Ugs-6" value="" style="edgeStyle=orthogonalEdgeStyle;rounded=0;orthogonalLoop=1;jettySize=auto;html=1;" edge="1" parent="WIyWlLk6GJQsqaUBKTNV-1" source="7I79Z4eoALwgWrJ79Ugs-3" target="7I79Z4eoALwgWrJ79Ugs-5">
          <mxGeometry relative="1" as="geometry" />
        </mxCell>
        <mxCell id="7I79Z4eoALwgWrJ79Ugs-3" value="Mostrar mensaje: &quot;Por favor, ingrese el radio del circulo: &quot;" style="shape=parallelogram;perimeter=parallelogramPerimeter;whiteSpace=wrap;html=1;fixedSize=1;fillColor=#f0a30a;fontColor=#000000;strokeColor=#BD7000;" vertex="1" parent="WIyWlLk6GJQsqaUBKTNV-1">
          <mxGeometry x="225" y="180" width="190" height="90" as="geometry" />
        </mxCell>
        <mxCell id="7I79Z4eoALwgWrJ79Ugs-8" value="" style="edgeStyle=orthogonalEdgeStyle;rounded=0;orthogonalLoop=1;jettySize=auto;html=1;" edge="1" parent="WIyWlLk6GJQsqaUBKTNV-1" source="7I79Z4eoALwgWrJ79Ugs-5" target="7I79Z4eoALwgWrJ79Ugs-7">
          <mxGeometry relative="1" as="geometry" />
        </mxCell>
        <mxCell id="7I79Z4eoALwgWrJ79Ugs-5" value="Definir y asignar a la variable area el resultado de π * radio^2" style="rounded=1;whiteSpace=wrap;html=1;fillColor=#0050ef;strokeColor=#001DBC;fontColor=#ffffff;" vertex="1" parent="WIyWlLk6GJQsqaUBKTNV-1">
          <mxGeometry x="230" y="350" width="180" height="95" as="geometry" />
        </mxCell>
        <mxCell id="7I79Z4eoALwgWrJ79Ugs-10" value="" style="edgeStyle=orthogonalEdgeStyle;rounded=0;orthogonalLoop=1;jettySize=auto;html=1;" edge="1" parent="WIyWlLk6GJQsqaUBKTNV-1" source="7I79Z4eoALwgWrJ79Ugs-7" target="7I79Z4eoALwgWrJ79Ugs-9">
          <mxGeometry relative="1" as="geometry" />
        </mxCell>
        <mxCell id="7I79Z4eoALwgWrJ79Ugs-7" value="Mostrar mensaje: &quot;El área del círculo con radio&quot;, radio &quot;es:&quot;, area" style="shape=parallelogram;perimeter=parallelogramPerimeter;whiteSpace=wrap;html=1;fixedSize=1;fillColor=#f0a30a;strokeColor=#BD7000;rounded=1;fontColor=#000000;" vertex="1" parent="WIyWlLk6GJQsqaUBKTNV-1">
          <mxGeometry x="227.5" y="530" width="185" height="102.5" as="geometry" />
        </mxCell>
        <mxCell id="7I79Z4eoALwgWrJ79Ugs-9" value="&lt;div&gt;FIN&lt;/div&gt;&lt;div&gt;&lt;br&gt;&lt;/div&gt;" style="ellipse;whiteSpace=wrap;html=1;aspect=fixed;" vertex="1" parent="WIyWlLk6GJQsqaUBKTNV-1">
          <mxGeometry x="280" y="710" width="80" height="80" as="geometry" />
        </mxCell>
      </root>
    </mxGraphModel>
  </diagram>
</mxfile>
